<svg width="16" height="22" viewBox="0 0 16 22" fill="none" xmlns="http://www.w3.org/2000/svg">
<path d="M7.79495 0C3.49572 0 0 3.4955 0 7.79495C0 10.004 0.924693 12.0007 2.40552 13.4202V20.9485C2.40518 21.1289 2.50492 21.295 2.66447 21.3794C2.82402 21.464 3.01739 21.4535 3.16675 21.3519L7.795 18.2462L12.4233 21.3443C12.5726 21.4459 12.766 21.4564 12.9255 21.372C13.0851 21.2873 13.1848 21.1215 13.1845 20.9409V13.4204C14.6653 12.0007 15.59 10.0041 15.59 7.79517C15.59 3.49594 12.0943 0.000213557 7.79505 0.000213557L7.79495 0ZM7.79495 0.974282C11.5676 0.974282 14.6155 4.02206 14.6155 7.79486C14.6155 11.5674 11.5676 14.6154 7.79495 14.6154C4.02232 14.6154 0.974369 11.5677 0.974369 7.79486C0.974369 4.02206 4.02232 0.974282 7.79495 0.974282ZM7.73412 3.16653C7.56828 3.1876 7.4247 3.2909 7.35351 3.4406L6.20402 5.8004L3.5931 6.1506L3.59293 6.15043C3.40534 6.17286 3.24766 6.29996 3.18734 6.47735C3.12719 6.65457 3.17544 6.85014 3.31138 6.98015L5.2221 8.79178L4.75005 11.357C4.72253 11.4918 4.75413 11.6316 4.83688 11.7419C4.91963 11.8523 5.04571 11.9227 5.18402 11.9356C5.28189 11.9437 5.3801 11.9225 5.46557 11.8748L7.79497 10.6491L10.1244 11.8748C10.2909 11.9646 10.4949 11.9514 10.648 11.8406C10.8013 11.7298 10.8759 11.5414 10.8399 11.357L10.3678 8.79179L12.2786 6.98016C12.4141 6.85119 12.4631 6.65698 12.4046 6.48027C12.3463 6.30339 12.1909 6.17527 12.0045 6.15047L9.3859 5.80027L8.23641 3.44047V3.44064C8.14618 3.25152 7.94381 3.14108 7.73413 3.16639L7.73412 3.16653ZM7.79495 4.77275L8.61699 6.45511V6.45494C8.68886 6.59953 8.8287 6.69945 8.99012 6.72137L10.8704 6.9725L9.50789 8.27424H9.50772C9.38928 8.38588 9.33508 8.54866 9.36312 8.70804L9.69802 10.5426L8.03098 9.66723C7.88401 9.5872 7.70593 9.5872 7.55894 9.66723L5.89189 10.5426L6.2268 8.70804C6.25484 8.54866 6.20063 8.38588 6.0822 8.27424L4.71965 6.9725L6.59997 6.72137H6.5998C6.76122 6.69945 6.90106 6.59953 6.97293 6.45477L7.79497 4.77259L7.79495 4.77275ZM3.37984 14.2115C4.63639 15.0791 6.15527 15.5894 7.79495 15.5894C9.43463 15.5894 10.9535 15.0791 12.2101 14.2115V20.0273L8.06904 17.2565C7.90371 17.144 7.68621 17.144 7.52087 17.2565L3.37984 20.0348V14.2116V14.2115Z" fill="#081131"/>
</svg>
