<svg width="20" height="14" viewBox="0 0 20 14" fill="none" xmlns="http://www.w3.org/2000/svg">
<path d="M10.5556 3.33333C10.5556 5.17127 12.051 6.66667 13.8889 6.66667C15.7269 6.66667 17.2223 5.17127 17.2223 3.33333C17.2223 1.4954 15.7269 0 13.8889 0C12.051 0 10.5556 1.4954 10.5556 3.33333ZM16.1111 3.33333C16.1111 4.55869 15.1143 5.55556 13.8889 5.55556C12.6636 5.55556 11.6667 4.55869 11.6667 3.33333C11.6667 2.10798 12.6636 1.11111 13.8889 1.11111C15.1143 1.11111 16.1111 2.10798 16.1111 3.33333Z" fill="#4D4D4D"/>
<path d="M13.8889 7.77783C12.3989 7.77783 11.0496 8.10118 10 8.64541C8.95044 8.10117 7.60107 7.77783 6.11111 7.77783C2.68417 7.77783 0 9.48605 0 11.6667V12.7778C0 13.0848 0.248635 13.3334 0.555556 13.3334H19.4444C19.7514 13.3334 20 13.0848 20 12.7778V11.6667C20 9.48605 17.3158 7.77783 13.8889 7.77783ZM11.1111 12.2223H1.11111V11.6667C1.11111 10.161 3.40091 8.88894 6.11111 8.88894C8.82131 8.88894 11.1111 10.161 11.1111 11.6667V12.2223ZM18.8889 12.2223H12.2222V11.6667C12.2222 10.8062 11.8029 10.0201 11.0865 9.38251C11.8917 9.0728 12.8598 8.88894 13.8889 8.88894C16.5991 8.88894 18.8889 10.161 18.8889 11.6667V12.2223Z" fill="#4D4D4D"/>
<path d="M2.7778 3.33333C2.7778 5.17127 4.2732 6.66667 6.11113 6.66667C7.94907 6.66667 9.44447 5.17127 9.44447 3.33333C9.44447 1.4954 7.94907 0 6.11113 0C4.2732 0 2.7778 1.4954 2.7778 3.33333ZM8.33336 3.33333C8.33336 4.55869 7.33649 5.55556 6.11113 5.55556C4.88578 5.55556 3.88891 4.55869 3.88891 3.33333C3.88891 2.10798 4.88578 1.11111 6.11113 1.11111C7.33649 1.11111 8.33336 2.10798 8.33336 3.33333Z" fill="#4D4D4D"/>
</svg>
