<svg width="24" height="24" viewBox="0 0 24 24" fill="none" xmlns="http://www.w3.org/2000/svg">
<path d="M21.6875 3H14.375C13.4561 3 12.6384 3.44305 12.125 4.12673C11.6116 3.44305 10.7939 3 9.875 3H2.5625C2.25174 3 2 3.25174 2 3.5625V18.1875C2 18.4983 2.25174 18.75 2.5625 18.75H9.875C10.8055 18.75 11.5625 19.507 11.5625 20.4375C11.5625 20.7483 11.8142 21 12.125 21C12.4358 21 12.6875 20.7483 12.6875 20.4375C12.6875 19.507 13.4445 18.75 14.375 18.75H21.6875C21.9983 18.75 22.25 18.4983 22.25 18.1875V3.5625C22.25 3.25174 21.9983 3 21.6875 3ZM11.5625 18.1943C11.0915 17.8392 10.5087 17.6249 9.875 17.6249H3.125V4.12492H9.875C10.8055 4.12492 11.5625 4.88188 11.5625 5.81242V18.1943ZM21.125 17.6249H14.375C13.7413 17.6249 13.1585 17.8392 12.6875 18.1943V5.8125C12.6875 4.88196 13.4445 4.125 14.375 4.125H21.125V17.6249Z" fill="#081131"/>
<path d="M9.87512 8.0625H4.81262C4.50186 8.0625 4.25012 8.31424 4.25012 8.625C4.25012 8.93576 4.50186 9.1875 4.81262 9.1875H9.87512C10.1859 9.1875 10.4376 8.93576 10.4376 8.625C10.4376 8.31424 10.1859 8.0625 9.87512 8.0625Z" fill="#081131"/>
<path d="M9.87512 10.3125H4.81262C4.50186 10.3125 4.25012 10.5642 4.25012 10.875C4.25012 11.1858 4.50186 11.4375 4.81262 11.4375H9.87512C10.1859 11.4375 10.4376 11.1858 10.4376 10.875C10.4376 10.5642 10.1859 10.3125 9.87512 10.3125Z" fill="#081131"/>
<path d="M9.87512 12.5625H4.81262C4.50186 12.5625 4.25012 12.8142 4.25012 13.125C4.25012 13.4358 4.50186 13.6875 4.81262 13.6875H9.87512C10.1859 13.6875 10.4376 13.4358 10.4376 13.125C10.4376 12.8142 10.1859 12.5625 9.87512 12.5625Z" fill="#081131"/>
<path d="M9.87512 14.8125H4.81262C4.50186 14.8125 4.25012 15.0642 4.25012 15.375C4.25012 15.6858 4.50186 15.9375 4.81262 15.9375H9.87512C10.1859 15.9375 10.4376 15.6858 10.4376 15.375C10.4376 15.0642 10.1859 14.8125 9.87512 14.8125Z" fill="#081131"/>
<path d="M19.4376 8.0625H14.3751C14.0643 8.0625 13.8126 8.31424 13.8126 8.625C13.8126 8.93576 14.0643 9.1875 14.3751 9.1875H19.4376C19.7483 9.1875 20.0001 8.93576 20.0001 8.625C20.0001 8.31424 19.7483 8.0625 19.4376 8.0625Z" fill="#081131"/>
<path d="M19.4376 10.3125H14.3751C14.0643 10.3125 13.8126 10.5642 13.8126 10.875C13.8126 11.1858 14.0643 11.4375 14.3751 11.4375H19.4376C19.7483 11.4375 20.0001 11.1858 20.0001 10.875C20.0001 10.5642 19.7483 10.3125 19.4376 10.3125Z" fill="#081131"/>
<path d="M19.4376 12.5625H14.3751C14.0643 12.5625 13.8126 12.8142 13.8126 13.125C13.8126 13.4358 14.0643 13.6875 14.3751 13.6875H19.4376C19.7483 13.6875 20.0001 13.4358 20.0001 13.125C20.0001 12.8142 19.7483 12.5625 19.4376 12.5625Z" fill="#081131"/>
<path d="M19.4376 14.8125H14.3751C14.0643 14.8125 13.8126 15.0642 13.8126 15.375C13.8126 15.6858 14.0643 15.9375 14.3751 15.9375H19.4376C19.7483 15.9375 20.0001 15.6858 20.0001 15.375C20.0001 15.0642 19.7483 14.8125 19.4376 14.8125Z" fill="#081131"/>
<path d="M9.87512 5.8125H4.81262C4.50186 5.8125 4.25012 6.06424 4.25012 6.375C4.25012 6.68576 4.50186 6.9375 4.81262 6.9375H9.87512C10.1859 6.9375 10.4376 6.68576 10.4376 6.375C10.4376 6.06424 10.1859 5.8125 9.87512 5.8125Z" fill="#081131"/>
<path d="M13.8126 6.375C13.8126 6.68576 14.0643 6.9375 14.3751 6.9375H19.4376C19.7483 6.9375 20.0001 6.68576 20.0001 6.375C20.0001 6.06424 19.7483 5.8125 19.4376 5.8125H14.3751C14.0643 5.8125 13.8126 6.06424 13.8126 6.375Z" fill="#081131"/>
</svg>
