<svg width="53" height="52" viewBox="0 0 53 52" fill="none" xmlns="http://www.w3.org/2000/svg">
<rect width="52.4001" height="52" rx="26" fill="#BF3939"/>
<path d="M28.1027 31.84H16.64V27.5551L19.2382 24.5601C19.504 24.258 19.8888 24.0877 20.2911 24.094C20.6936 24.1003 21.0729 24.283 21.3288 24.5933L23.5657 27.3486L27.8027 22.2185L27.8025 22.2183C28.064 21.9087 28.4486 21.73 28.854 21.7296C29.2592 21.7294 29.644 21.9077 29.9059 22.2171L32.9607 25.9151H32.9605C31.6353 26.2749 30.4551 27.039 29.5843 28.1009C28.7136 29.1628 28.1956 30.4698 28.1024 31.8399L28.1027 31.84ZM23.764 19.3078C23.1352 19.3078 22.5541 19.6433 22.2397 20.1878C21.9252 20.7325 21.9252 21.4033 22.2397 21.9478C22.5542 22.4925 23.1352 22.8278 23.764 22.8278C24.3927 22.8278 24.9738 22.4925 25.2881 21.9478C25.6026 21.4033 25.6026 20.7325 25.2881 20.1878C24.9738 19.6433 24.3927 19.3078 23.764 19.3078ZM28.1027 32.72H16.2C15.9571 32.72 15.76 32.523 15.76 32.28V18.2C15.76 17.957 15.9571 17.76 16.2 17.76H34.6801C34.7967 17.76 34.9087 17.8063 34.9912 17.8888C35.0737 17.9713 35.1201 18.0833 35.1201 18.2V25.7026C35.7205 25.7419 36.3128 25.8641 36.8801 26.0652V17.32C36.8797 16.97 36.7404 16.6345 36.4931 16.387C36.2456 16.1397 35.9101 16.0004 35.56 16H15.32C14.97 16.0004 14.6345 16.1397 14.387 16.387C14.1397 16.6345 14.0004 16.97 14 17.32V33.16C14.0004 33.5101 14.1397 33.8456 14.387 34.0931C14.6345 34.3404 14.97 34.4797 15.32 34.4801H28.4652C28.2641 33.9128 28.1419 33.3205 28.1026 32.7201L28.1027 32.72ZM34.6801 26.56C33.163 26.56 31.7081 27.1626 30.6354 28.2353C29.5627 29.308 28.9601 30.763 28.9601 32.28C28.9601 33.797 29.5627 35.252 30.6354 36.3247C31.7081 37.3974 33.163 38 34.6801 38C36.1971 38 37.6521 37.3974 38.7247 36.3247C39.7974 35.252 40.4001 33.797 40.4001 32.28C40.3983 30.7636 39.7951 29.3096 38.7228 28.2373C37.6505 27.1649 36.1965 26.5617 34.6801 26.56ZM36.8801 32.28H36.0001V35.8C36.0001 35.9167 35.9537 36.0286 35.8712 36.1111C35.7887 36.1936 35.6767 36.24 35.5601 36.24H33.8001C33.5571 36.24 33.3601 36.043 33.3601 35.8V32.2692L32.4853 32.28C32.3199 32.2814 32.1675 32.19 32.0909 32.0433C32.0143 31.8966 32.0263 31.7194 32.1219 31.5842L34.3219 28.5042C34.4086 28.3948 34.5404 28.331 34.68 28.331C34.8197 28.331 34.9515 28.3948 35.0381 28.5042L37.2381 31.5842C37.3316 31.719 37.3432 31.894 37.2682 32.0398C37.1931 32.1855 37.0439 32.2778 36.8801 32.28Z" fill="white"/>
</svg>
