<svg width="24" height="25" viewBox="0 0 24 25" fill="none" xmlns="http://www.w3.org/2000/svg">
<g id="Draft Toolbar Icons">
<path id="Vector" d="M16.125 6.99984V17.5415C16.125 19.5673 14.4841 21.2082 12.4583 21.2082C10.4325 21.2082 8.79163 19.5673 8.79163 17.5415V6.08317C8.79163 4.81817 9.81829 3.7915 11.0833 3.7915C12.3483 3.7915 13.375 4.81817 13.375 6.08317V15.7082C13.375 16.2123 12.9625 16.6248 12.4583 16.6248C11.9541 16.6248 11.5416 16.2123 11.5416 15.7082V6.99984H10.1666V15.7082C10.1666 16.9732 11.1933 17.9998 12.4583 17.9998C13.7233 17.9998 14.75 16.9732 14.75 15.7082V6.08317C14.75 4.05734 13.1091 2.4165 11.0833 2.4165C9.05746 2.4165 7.41663 4.05734 7.41663 6.08317V17.5415C7.41663 20.3282 9.67163 22.5832 12.4583 22.5832C15.245 22.5832 17.5 20.3282 17.5 17.5415V6.99984H16.125Z" fill="#fff"/>
</g>
</svg>
