<svg width="24" height="25" viewBox="0 0 24 25" fill="none" xmlns="http://www.w3.org/2000/svg">
<g id="Draft Toolbar Icons">
<path id="Vector" d="M14.2916 14.5168L16.9499 16.0752L16.2166 17.2668L12.9166 15.2502V10.6668H14.2916V14.5168ZM21.1666 14.3335C21.1666 18.376 17.8758 21.6668 13.8333 21.6668C11.9816 21.6668 10.2949 20.9702 9.00242 19.8335H4.66659C3.61242 19.8335 2.83325 19.0543 2.83325 18.0002V9.75016C2.83325 8.7235 3.64909 7.9535 4.66659 7.91683V7.4585C4.66659 5.176 6.50909 3.3335 8.79159 3.3335C10.9366 3.3335 12.6783 4.97433 12.8799 7.0735C13.1916 7.02766 13.5124 7.00016 13.8333 7.00016C17.8758 7.00016 21.1666 10.291 21.1666 14.3335ZM6.49992 7.91683H11.0833V7.2385C10.9733 6.07433 9.98325 5.16683 8.79159 5.16683C7.52659 5.16683 6.49992 6.1935 6.49992 7.4585V7.91683ZM19.3333 14.3335C19.3333 11.2993 16.8674 8.8335 13.8333 8.8335C10.7991 8.8335 8.33325 11.2993 8.33325 14.3335C8.33325 17.3677 10.7991 19.8335 13.8333 19.8335C16.8674 19.8335 19.3333 17.3677 19.3333 14.3335Z" fill="#4D4D4D"/>
</g>
</svg>
