<svg width="24" height="25" viewBox="0 0 24 25" fill="none" xmlns="http://www.w3.org/2000/svg">
<g id="Draft Toolbar Icons">
<path id="Vector" d="M11.9909 3.3335C6.93087 3.3335 2.83337 7.44016 2.83337 12.5002C2.83337 17.5602 6.93087 21.6668 11.9909 21.6668C17.06 21.6668 21.1667 17.5602 21.1667 12.5002C21.1667 7.44016 17.06 3.3335 11.9909 3.3335ZM12 19.8335C7.94837 19.8335 4.66671 16.5518 4.66671 12.5002C4.66671 8.4485 7.94837 5.16683 12 5.16683C16.0517 5.16683 19.3334 8.4485 19.3334 12.5002C19.3334 16.5518 16.0517 19.8335 12 19.8335ZM15.2084 11.5835C15.9692 11.5835 16.5834 10.9693 16.5834 10.2085C16.5834 9.44766 15.9692 8.8335 15.2084 8.8335C14.4475 8.8335 13.8334 9.44766 13.8334 10.2085C13.8334 10.9693 14.4475 11.5835 15.2084 11.5835ZM8.79171 11.5835C9.55254 11.5835 10.1667 10.9693 10.1667 10.2085C10.1667 9.44766 9.55254 8.8335 8.79171 8.8335C8.03087 8.8335 7.41671 9.44766 7.41671 10.2085C7.41671 10.9693 8.03087 11.5835 8.79171 11.5835ZM12 17.5418C14.1359 17.5418 15.9509 16.2035 16.6842 14.3335H7.31587C8.04921 16.2035 9.86421 17.5418 12 17.5418Z" fill="#4D4D4D"/>
</g>
</svg>
