<svg width="24" height="25" viewBox="0 0 24 25" fill="none" xmlns="http://www.w3.org/2000/svg">
<g id="Draft Toolbar Icons">
<path id="Vector" d="M4.57504 12.4998C4.57504 10.9323 5.84921 9.65817 7.41671 9.65817H11.0834V7.9165H7.41671C4.88671 7.9165 2.83337 9.96984 2.83337 12.4998C2.83337 15.0298 4.88671 17.0832 7.41671 17.0832H11.0834V15.3415H7.41671C5.84921 15.3415 4.57504 14.0673 4.57504 12.4998ZM8.33337 13.4165H15.6667V11.5832H8.33337V13.4165ZM16.5834 7.9165H12.9167V9.65817H16.5834C18.1509 9.65817 19.425 10.9323 19.425 12.4998C19.425 14.0673 18.1509 15.3415 16.5834 15.3415H12.9167V17.0832H16.5834C19.1134 17.0832 21.1667 15.0298 21.1667 12.4998C21.1667 9.96984 19.1134 7.9165 16.5834 7.9165Z" fill="#4D4D4D"/>
</g>
</svg>
