<svg width="24" height="25" viewBox="0 0 24 25" fill="none" xmlns="http://www.w3.org/2000/svg">
<g id="Draft Toolbar Icons">
<path id="Union" fill-rule="evenodd" clip-rule="evenodd" d="M13.5303 4.46967C13.2374 4.17678 12.7626 4.17678 12.4697 4.46967L7.46967 9.46967C7.17678 9.76256 7.17678 10.2374 7.46967 10.5303C7.76256 10.8232 8.23744 10.8232 8.53033 10.5303L13 6.06066L14.2681 7.32874L12.0433 9.58167L15.4808 13.0192L20.2342 8.20563C20.5917 7.84812 20.5917 7.27063 20.2342 6.91313L18.0892 4.76812C17.7317 4.41063 17.1542 4.41063 16.7967 4.76812L15.3221 6.2614L13.5303 4.46967ZM4 21.0023V17.5648L11.0625 10.5625L14.5 14L7.4375 21.0023H4Z" fill="#4D4D4D"/>
</g>
</svg>
