<svg width="24" height="25" viewBox="0 0 24 25" fill="none" xmlns="http://www.w3.org/2000/svg">
<g id="Draft Toolbar Icons">
<path id="Union" fill-rule="evenodd" clip-rule="evenodd" d="M6.18842 21.2082C5.52842 21.2082 4.92342 20.8598 4.60259 20.2915L2.43925 16.5332C2.10925 15.9648 2.11842 15.2682 2.44842 14.6998L8.26009 4.699C8.59009 4.13984 9.19509 3.7915 9.84592 3.7915H11.5H11.9909H14.1453C14.7961 3.7915 15.4011 4.13984 15.7311 4.699L21.5428 14.6998C21.8728 15.2682 21.882 15.9648 21.552 16.5332L19.3886 20.2915C19.0678 20.8598 18.4628 21.2082 17.8028 21.2082H12.0003L11.9909 21.1738V21.2082H6.18842ZM11.5 19.3748H11.9909H17.8028L19.957 15.6257L14.1453 5.62484H12.0003L11.9909 5.5905V5.62484H9.84592L4.03425 15.6257L6.18842 19.3748H11.5ZM7.64592 17.0832L6.97675 15.919L11.1751 8.604H11.5H11.9909H12.8161L17.0145 15.919L16.3453 17.0832H11.9909H11.5H7.64592ZM11.5 15.2498H11.9909H14.512L12.0003 10.8407L11.9909 10.7988V10.8407L9.47925 15.2498H11.5Z" fill="#4D4D4D"/>
</g>
</svg>
